<mxfile host="app.diagrams.net" modified="2022-02-24T10:40:00.203Z" agent="5.0 (Macintosh; Intel Mac OS X 10_15_7) AppleWebKit/605.1.15 (KHTML, like Gecko) Version/15.3 Safari/605.1.15" etag="TJWNggKludhoIGzzSsPr" version="16.6.3" type="github">
  <diagram id="4QIVGZGV-2BnSOK3k645" name="Page-1">
    <mxGraphModel dx="916" dy="1084" grid="1" gridSize="10" guides="1" tooltips="1" connect="1" arrows="1" fold="1" page="1" pageScale="1" pageWidth="827" pageHeight="1169" math="0" shadow="0">
      <root>
        <mxCell id="0" />
        <mxCell id="1" parent="0" />
        <mxCell id="mq0hJKvMkmg_muXDxXzh-32" style="rounded=0;orthogonalLoop=1;jettySize=auto;html=1;exitX=1;exitY=0.5;exitDx=0;exitDy=0;entryX=0;entryY=0.5;entryDx=0;entryDy=0;fontSize=12;jumpStyle=arc;" edge="1" parent="1" source="mq0hJKvMkmg_muXDxXzh-1" target="mq0hJKvMkmg_muXDxXzh-21">
          <mxGeometry relative="1" as="geometry" />
        </mxCell>
        <mxCell id="mq0hJKvMkmg_muXDxXzh-35" style="edgeStyle=none;rounded=0;orthogonalLoop=1;jettySize=auto;html=1;exitX=1;exitY=0.75;exitDx=0;exitDy=0;entryX=0;entryY=0;entryDx=0;entryDy=0;fontSize=12;jumpStyle=arc;" edge="1" parent="1" source="mq0hJKvMkmg_muXDxXzh-1" target="mq0hJKvMkmg_muXDxXzh-25">
          <mxGeometry relative="1" as="geometry" />
        </mxCell>
        <mxCell id="mq0hJKvMkmg_muXDxXzh-1" value="Web Design" style="rounded=1;whiteSpace=wrap;html=1;" vertex="1" parent="1">
          <mxGeometry x="30" y="190" width="120" height="60" as="geometry" />
        </mxCell>
        <mxCell id="mq0hJKvMkmg_muXDxXzh-33" style="edgeStyle=none;rounded=0;orthogonalLoop=1;jettySize=auto;html=1;exitX=1;exitY=0.5;exitDx=0;exitDy=0;fontSize=12;jumpStyle=arc;" edge="1" parent="1" source="mq0hJKvMkmg_muXDxXzh-2" target="mq0hJKvMkmg_muXDxXzh-21">
          <mxGeometry relative="1" as="geometry" />
        </mxCell>
        <mxCell id="mq0hJKvMkmg_muXDxXzh-2" value="Fine Art" style="rounded=1;whiteSpace=wrap;html=1;" vertex="1" parent="1">
          <mxGeometry x="30" y="270" width="120" height="60" as="geometry" />
        </mxCell>
        <mxCell id="mq0hJKvMkmg_muXDxXzh-34" style="edgeStyle=none;rounded=0;orthogonalLoop=1;jettySize=auto;html=1;exitX=1;exitY=0.5;exitDx=0;exitDy=0;fontSize=12;jumpStyle=arc;" edge="1" parent="1" source="mq0hJKvMkmg_muXDxXzh-3" target="mq0hJKvMkmg_muXDxXzh-21">
          <mxGeometry relative="1" as="geometry" />
        </mxCell>
        <mxCell id="mq0hJKvMkmg_muXDxXzh-3" value="Graphic Design" style="rounded=1;whiteSpace=wrap;html=1;" vertex="1" parent="1">
          <mxGeometry x="30" y="360" width="120" height="60" as="geometry" />
        </mxCell>
        <mxCell id="mq0hJKvMkmg_muXDxXzh-36" style="edgeStyle=none;rounded=0;jumpStyle=arc;orthogonalLoop=1;jettySize=auto;html=1;exitX=1;exitY=0.5;exitDx=0;exitDy=0;entryX=0;entryY=0.5;entryDx=0;entryDy=0;fontSize=12;" edge="1" parent="1" source="mq0hJKvMkmg_muXDxXzh-4" target="mq0hJKvMkmg_muXDxXzh-24">
          <mxGeometry relative="1" as="geometry" />
        </mxCell>
        <mxCell id="mq0hJKvMkmg_muXDxXzh-58" style="edgeStyle=none;rounded=0;jumpStyle=arc;orthogonalLoop=1;jettySize=auto;html=1;exitX=1;exitY=0.5;exitDx=0;exitDy=0;entryX=0.217;entryY=0.1;entryDx=0;entryDy=0;entryPerimeter=0;fontSize=12;" edge="1" parent="1" source="mq0hJKvMkmg_muXDxXzh-4" target="mq0hJKvMkmg_muXDxXzh-27">
          <mxGeometry relative="1" as="geometry" />
        </mxCell>
        <mxCell id="mq0hJKvMkmg_muXDxXzh-4" value="Film" style="rounded=1;whiteSpace=wrap;html=1;" vertex="1" parent="1">
          <mxGeometry x="30" y="450" width="120" height="60" as="geometry" />
        </mxCell>
        <mxCell id="mq0hJKvMkmg_muXDxXzh-59" style="edgeStyle=none;rounded=0;jumpStyle=arc;orthogonalLoop=1;jettySize=auto;html=1;exitX=1;exitY=0.5;exitDx=0;exitDy=0;entryX=0;entryY=0.5;entryDx=0;entryDy=0;fontSize=12;" edge="1" parent="1" source="mq0hJKvMkmg_muXDxXzh-5" target="mq0hJKvMkmg_muXDxXzh-23">
          <mxGeometry relative="1" as="geometry" />
        </mxCell>
        <mxCell id="mq0hJKvMkmg_muXDxXzh-5" value="Interior Design" style="rounded=1;whiteSpace=wrap;html=1;" vertex="1" parent="1">
          <mxGeometry x="30" y="540" width="120" height="60" as="geometry" />
        </mxCell>
        <mxCell id="mq0hJKvMkmg_muXDxXzh-57" style="edgeStyle=none;rounded=0;jumpStyle=arc;orthogonalLoop=1;jettySize=auto;html=1;exitX=1;exitY=0.5;exitDx=0;exitDy=0;fontSize=12;" edge="1" parent="1" source="mq0hJKvMkmg_muXDxXzh-6" target="mq0hJKvMkmg_muXDxXzh-24">
          <mxGeometry relative="1" as="geometry" />
        </mxCell>
        <mxCell id="mq0hJKvMkmg_muXDxXzh-6" value="Television" style="rounded=1;whiteSpace=wrap;html=1;" vertex="1" parent="1">
          <mxGeometry x="30" y="630" width="120" height="60" as="geometry" />
        </mxCell>
        <mxCell id="mq0hJKvMkmg_muXDxXzh-56" style="edgeStyle=none;rounded=0;jumpStyle=arc;orthogonalLoop=1;jettySize=auto;html=1;exitX=1;exitY=0.5;exitDx=0;exitDy=0;fontSize=12;" edge="1" parent="1" source="mq0hJKvMkmg_muXDxXzh-7" target="mq0hJKvMkmg_muXDxXzh-24">
          <mxGeometry relative="1" as="geometry" />
        </mxCell>
        <mxCell id="mq0hJKvMkmg_muXDxXzh-7" value="VFX" style="rounded=1;whiteSpace=wrap;html=1;" vertex="1" parent="1">
          <mxGeometry x="30" y="720" width="120" height="60" as="geometry" />
        </mxCell>
        <mxCell id="mq0hJKvMkmg_muXDxXzh-54" style="edgeStyle=none;rounded=0;jumpStyle=arc;orthogonalLoop=1;jettySize=auto;html=1;exitX=1;exitY=0.5;exitDx=0;exitDy=0;entryX=0;entryY=0;entryDx=0;entryDy=0;fontSize=12;" edge="1" parent="1" source="mq0hJKvMkmg_muXDxXzh-8" target="mq0hJKvMkmg_muXDxXzh-28">
          <mxGeometry relative="1" as="geometry" />
        </mxCell>
        <mxCell id="mq0hJKvMkmg_muXDxXzh-55" style="edgeStyle=none;rounded=0;jumpStyle=arc;orthogonalLoop=1;jettySize=auto;html=1;exitX=1;exitY=0.5;exitDx=0;exitDy=0;entryX=0;entryY=0;entryDx=0;entryDy=0;fontSize=12;" edge="1" parent="1" source="mq0hJKvMkmg_muXDxXzh-8" target="mq0hJKvMkmg_muXDxXzh-27">
          <mxGeometry relative="1" as="geometry" />
        </mxCell>
        <mxCell id="mq0hJKvMkmg_muXDxXzh-8" value="Podcast" style="rounded=1;whiteSpace=wrap;html=1;" vertex="1" parent="1">
          <mxGeometry x="30" y="810" width="120" height="60" as="geometry" />
        </mxCell>
        <mxCell id="mq0hJKvMkmg_muXDxXzh-52" style="edgeStyle=none;rounded=0;jumpStyle=arc;orthogonalLoop=1;jettySize=auto;html=1;exitX=1;exitY=0.5;exitDx=0;exitDy=0;entryX=0;entryY=0.5;entryDx=0;entryDy=0;fontSize=12;" edge="1" parent="1" source="mq0hJKvMkmg_muXDxXzh-9" target="mq0hJKvMkmg_muXDxXzh-27">
          <mxGeometry relative="1" as="geometry" />
        </mxCell>
        <mxCell id="mq0hJKvMkmg_muXDxXzh-53" style="edgeStyle=none;rounded=0;jumpStyle=arc;orthogonalLoop=1;jettySize=auto;html=1;exitX=1;exitY=0.5;exitDx=0;exitDy=0;entryX=0;entryY=0.5;entryDx=0;entryDy=0;fontSize=12;" edge="1" parent="1" source="mq0hJKvMkmg_muXDxXzh-9" target="mq0hJKvMkmg_muXDxXzh-28">
          <mxGeometry relative="1" as="geometry" />
        </mxCell>
        <mxCell id="mq0hJKvMkmg_muXDxXzh-9" value="Journalism" style="rounded=1;whiteSpace=wrap;html=1;" vertex="1" parent="1">
          <mxGeometry x="30" y="900" width="120" height="60" as="geometry" />
        </mxCell>
        <mxCell id="mq0hJKvMkmg_muXDxXzh-51" style="edgeStyle=none;rounded=0;jumpStyle=arc;orthogonalLoop=1;jettySize=auto;html=1;exitX=1;exitY=0.5;exitDx=0;exitDy=0;entryX=0;entryY=1;entryDx=0;entryDy=0;fontSize=12;" edge="1" parent="1" source="mq0hJKvMkmg_muXDxXzh-10" target="mq0hJKvMkmg_muXDxXzh-25">
          <mxGeometry relative="1" as="geometry" />
        </mxCell>
        <mxCell id="mq0hJKvMkmg_muXDxXzh-10" value="App Design" style="rounded=1;whiteSpace=wrap;html=1;" vertex="1" parent="1">
          <mxGeometry x="30" y="990" width="120" height="60" as="geometry" />
        </mxCell>
        <mxCell id="mq0hJKvMkmg_muXDxXzh-37" style="edgeStyle=none;rounded=0;jumpStyle=arc;orthogonalLoop=1;jettySize=auto;html=1;exitX=0;exitY=0.5;exitDx=0;exitDy=0;entryX=1;entryY=0;entryDx=0;entryDy=0;fontSize=12;" edge="1" parent="1" source="mq0hJKvMkmg_muXDxXzh-12" target="mq0hJKvMkmg_muXDxXzh-22">
          <mxGeometry relative="1" as="geometry" />
        </mxCell>
        <mxCell id="mq0hJKvMkmg_muXDxXzh-12" value="Fashion Design" style="rounded=1;whiteSpace=wrap;html=1;fontSize=12;strokeWidth=1;" vertex="1" parent="1">
          <mxGeometry x="690" y="270" width="120" height="60" as="geometry" />
        </mxCell>
        <mxCell id="mq0hJKvMkmg_muXDxXzh-38" style="edgeStyle=none;rounded=0;jumpStyle=arc;orthogonalLoop=1;jettySize=auto;html=1;exitX=0;exitY=0.5;exitDx=0;exitDy=0;entryX=0.975;entryY=0.338;entryDx=0;entryDy=0;entryPerimeter=0;fontSize=12;" edge="1" parent="1" source="mq0hJKvMkmg_muXDxXzh-13" target="mq0hJKvMkmg_muXDxXzh-22">
          <mxGeometry relative="1" as="geometry" />
        </mxCell>
        <mxCell id="mq0hJKvMkmg_muXDxXzh-13" value="Textile Design" style="rounded=1;whiteSpace=wrap;html=1;fontSize=12;strokeWidth=1;" vertex="1" parent="1">
          <mxGeometry x="690" y="350" width="120" height="60" as="geometry" />
        </mxCell>
        <mxCell id="mq0hJKvMkmg_muXDxXzh-39" style="edgeStyle=none;rounded=0;jumpStyle=arc;orthogonalLoop=1;jettySize=auto;html=1;exitX=0;exitY=0.5;exitDx=0;exitDy=0;fontSize=12;" edge="1" parent="1" source="mq0hJKvMkmg_muXDxXzh-14" target="mq0hJKvMkmg_muXDxXzh-21">
          <mxGeometry relative="1" as="geometry" />
        </mxCell>
        <mxCell id="mq0hJKvMkmg_muXDxXzh-40" style="edgeStyle=none;rounded=0;jumpStyle=arc;orthogonalLoop=1;jettySize=auto;html=1;exitX=0;exitY=0.75;exitDx=0;exitDy=0;fontSize=12;entryX=1;entryY=0.5;entryDx=0;entryDy=0;" edge="1" parent="1" source="mq0hJKvMkmg_muXDxXzh-14" target="mq0hJKvMkmg_muXDxXzh-24">
          <mxGeometry relative="1" as="geometry" />
        </mxCell>
        <mxCell id="mq0hJKvMkmg_muXDxXzh-14" value="Motion Graphics" style="rounded=1;whiteSpace=wrap;html=1;fontSize=12;strokeWidth=1;" vertex="1" parent="1">
          <mxGeometry x="690" y="440" width="120" height="60" as="geometry" />
        </mxCell>
        <mxCell id="mq0hJKvMkmg_muXDxXzh-41" style="edgeStyle=none;rounded=0;jumpStyle=arc;orthogonalLoop=1;jettySize=auto;html=1;exitX=0;exitY=0.5;exitDx=0;exitDy=0;entryX=1;entryY=0.5;entryDx=0;entryDy=0;fontSize=12;" edge="1" parent="1" source="mq0hJKvMkmg_muXDxXzh-15" target="mq0hJKvMkmg_muXDxXzh-23">
          <mxGeometry relative="1" as="geometry" />
        </mxCell>
        <mxCell id="mq0hJKvMkmg_muXDxXzh-42" style="edgeStyle=none;rounded=0;jumpStyle=arc;orthogonalLoop=1;jettySize=auto;html=1;exitX=0;exitY=0.75;exitDx=0;exitDy=0;entryX=1;entryY=0;entryDx=0;entryDy=0;fontSize=12;" edge="1" parent="1" source="mq0hJKvMkmg_muXDxXzh-15" target="mq0hJKvMkmg_muXDxXzh-26">
          <mxGeometry relative="1" as="geometry" />
        </mxCell>
        <mxCell id="mq0hJKvMkmg_muXDxXzh-15" value="Product Design" style="rounded=1;whiteSpace=wrap;html=1;fontSize=12;strokeWidth=1;" vertex="1" parent="1">
          <mxGeometry x="690" y="530" width="120" height="60" as="geometry" />
        </mxCell>
        <mxCell id="mq0hJKvMkmg_muXDxXzh-43" style="edgeStyle=none;rounded=0;jumpStyle=arc;orthogonalLoop=1;jettySize=auto;html=1;exitX=0;exitY=0.5;exitDx=0;exitDy=0;entryX=0.942;entryY=0.263;entryDx=0;entryDy=0;entryPerimeter=0;fontSize=12;" edge="1" parent="1" source="mq0hJKvMkmg_muXDxXzh-16" target="mq0hJKvMkmg_muXDxXzh-26">
          <mxGeometry relative="1" as="geometry" />
        </mxCell>
        <mxCell id="mq0hJKvMkmg_muXDxXzh-44" style="edgeStyle=none;rounded=0;jumpStyle=arc;orthogonalLoop=1;jettySize=auto;html=1;exitX=0;exitY=0.5;exitDx=0;exitDy=0;entryX=1;entryY=0.5;entryDx=0;entryDy=0;fontSize=12;" edge="1" parent="1" source="mq0hJKvMkmg_muXDxXzh-16" target="mq0hJKvMkmg_muXDxXzh-21">
          <mxGeometry relative="1" as="geometry" />
        </mxCell>
        <mxCell id="mq0hJKvMkmg_muXDxXzh-16" value="Ceramic Design" style="rounded=1;whiteSpace=wrap;html=1;fontSize=12;strokeWidth=1;" vertex="1" parent="1">
          <mxGeometry x="690" y="620" width="120" height="60" as="geometry" />
        </mxCell>
        <mxCell id="mq0hJKvMkmg_muXDxXzh-45" style="edgeStyle=none;rounded=0;jumpStyle=arc;orthogonalLoop=1;jettySize=auto;html=1;exitX=0;exitY=0.5;exitDx=0;exitDy=0;entryX=1;entryY=0.5;entryDx=0;entryDy=0;fontSize=12;" edge="1" parent="1" source="mq0hJKvMkmg_muXDxXzh-17" target="mq0hJKvMkmg_muXDxXzh-25">
          <mxGeometry relative="1" as="geometry" />
        </mxCell>
        <mxCell id="mq0hJKvMkmg_muXDxXzh-46" style="edgeStyle=none;rounded=0;jumpStyle=arc;orthogonalLoop=1;jettySize=auto;html=1;exitX=0;exitY=0.75;exitDx=0;exitDy=0;entryX=1;entryY=0;entryDx=0;entryDy=0;fontSize=12;" edge="1" parent="1" source="mq0hJKvMkmg_muXDxXzh-17" target="mq0hJKvMkmg_muXDxXzh-27">
          <mxGeometry relative="1" as="geometry" />
        </mxCell>
        <mxCell id="mq0hJKvMkmg_muXDxXzh-17" value="Game Design" style="rounded=1;whiteSpace=wrap;html=1;fontSize=12;strokeWidth=1;" vertex="1" parent="1">
          <mxGeometry x="690" y="710" width="120" height="60" as="geometry" />
        </mxCell>
        <mxCell id="mq0hJKvMkmg_muXDxXzh-47" style="edgeStyle=none;rounded=0;jumpStyle=arc;orthogonalLoop=1;jettySize=auto;html=1;exitX=0;exitY=0.5;exitDx=0;exitDy=0;entryX=1;entryY=0;entryDx=0;entryDy=0;fontSize=12;" edge="1" parent="1" source="mq0hJKvMkmg_muXDxXzh-18" target="mq0hJKvMkmg_muXDxXzh-28">
          <mxGeometry relative="1" as="geometry" />
        </mxCell>
        <mxCell id="mq0hJKvMkmg_muXDxXzh-60" style="edgeStyle=none;rounded=0;jumpStyle=arc;orthogonalLoop=1;jettySize=auto;html=1;exitX=0;exitY=0.5;exitDx=0;exitDy=0;entryX=0.992;entryY=0.3;entryDx=0;entryDy=0;entryPerimeter=0;fontSize=12;" edge="1" parent="1" source="mq0hJKvMkmg_muXDxXzh-18" target="mq0hJKvMkmg_muXDxXzh-27">
          <mxGeometry relative="1" as="geometry" />
        </mxCell>
        <mxCell id="mq0hJKvMkmg_muXDxXzh-18" value="Radio" style="rounded=1;whiteSpace=wrap;html=1;fontSize=12;strokeWidth=1;" vertex="1" parent="1">
          <mxGeometry x="690" y="800" width="120" height="60" as="geometry" />
        </mxCell>
        <mxCell id="mq0hJKvMkmg_muXDxXzh-48" style="edgeStyle=none;rounded=0;jumpStyle=arc;orthogonalLoop=1;jettySize=auto;html=1;exitX=0;exitY=0.5;exitDx=0;exitDy=0;entryX=0.958;entryY=0.75;entryDx=0;entryDy=0;entryPerimeter=0;fontSize=12;" edge="1" parent="1" source="mq0hJKvMkmg_muXDxXzh-19" target="mq0hJKvMkmg_muXDxXzh-22">
          <mxGeometry relative="1" as="geometry" />
        </mxCell>
        <mxCell id="mq0hJKvMkmg_muXDxXzh-49" style="edgeStyle=none;rounded=0;jumpStyle=arc;orthogonalLoop=1;jettySize=auto;html=1;exitX=0;exitY=0.5;exitDx=0;exitDy=0;fontSize=12;" edge="1" parent="1" source="mq0hJKvMkmg_muXDxXzh-19" target="mq0hJKvMkmg_muXDxXzh-26">
          <mxGeometry relative="1" as="geometry" />
        </mxCell>
        <mxCell id="mq0hJKvMkmg_muXDxXzh-19" value="Jewellery Design" style="rounded=1;whiteSpace=wrap;html=1;fontSize=12;strokeWidth=1;" vertex="1" parent="1">
          <mxGeometry x="690" y="890" width="120" height="60" as="geometry" />
        </mxCell>
        <mxCell id="mq0hJKvMkmg_muXDxXzh-50" style="edgeStyle=none;rounded=0;jumpStyle=arc;orthogonalLoop=1;jettySize=auto;html=1;exitX=0;exitY=0.5;exitDx=0;exitDy=0;entryX=1;entryY=0;entryDx=0;entryDy=0;fontSize=12;" edge="1" parent="1" source="mq0hJKvMkmg_muXDxXzh-20" target="mq0hJKvMkmg_muXDxXzh-21">
          <mxGeometry relative="1" as="geometry" />
        </mxCell>
        <mxCell id="mq0hJKvMkmg_muXDxXzh-61" style="edgeStyle=none;rounded=0;jumpStyle=arc;orthogonalLoop=1;jettySize=auto;html=1;exitX=0;exitY=0.5;exitDx=0;exitDy=0;entryX=1;entryY=0;entryDx=0;entryDy=0;fontSize=12;" edge="1" parent="1" source="mq0hJKvMkmg_muXDxXzh-20" target="mq0hJKvMkmg_muXDxXzh-24">
          <mxGeometry relative="1" as="geometry" />
        </mxCell>
        <mxCell id="mq0hJKvMkmg_muXDxXzh-20" value="Photography" style="rounded=1;whiteSpace=wrap;html=1;fontSize=12;strokeWidth=1;" vertex="1" parent="1">
          <mxGeometry x="690" y="190" width="120" height="60" as="geometry" />
        </mxCell>
        <mxCell id="mq0hJKvMkmg_muXDxXzh-21" value="image/mark" style="ellipse;whiteSpace=wrap;html=1;rounded=1;fontSize=12;strokeWidth=1;fillColor=#fff2cc;strokeColor=#d6b656;" vertex="1" parent="1">
          <mxGeometry x="370" y="170" width="120" height="80" as="geometry" />
        </mxCell>
        <mxCell id="mq0hJKvMkmg_muXDxXzh-22" value="wearable" style="ellipse;whiteSpace=wrap;html=1;rounded=1;fontSize=12;strokeWidth=1;fillColor=#f5f5f5;fontColor=#333333;strokeColor=#666666;" vertex="1" parent="1">
          <mxGeometry x="370" y="280" width="120" height="80" as="geometry" />
        </mxCell>
        <mxCell id="mq0hJKvMkmg_muXDxXzh-23" value="space/form" style="ellipse;whiteSpace=wrap;html=1;rounded=1;fontSize=12;strokeWidth=1;fillColor=#ffe6cc;strokeColor=#d79b00;" vertex="1" parent="1">
          <mxGeometry x="370" y="390" width="120" height="80" as="geometry" />
        </mxCell>
        <mxCell id="mq0hJKvMkmg_muXDxXzh-24" value="moving image" style="ellipse;whiteSpace=wrap;html=1;rounded=1;fontSize=12;strokeWidth=1;fillColor=#dae8fc;strokeColor=#6c8ebf;" vertex="1" parent="1">
          <mxGeometry x="370" y="500" width="120" height="80" as="geometry" />
        </mxCell>
        <mxCell id="mq0hJKvMkmg_muXDxXzh-25" value="experience/&lt;br&gt;interaction" style="ellipse;whiteSpace=wrap;html=1;rounded=1;fontSize=12;strokeWidth=1;fillColor=#f8cecc;strokeColor=#b85450;" vertex="1" parent="1">
          <mxGeometry x="370" y="620" width="120" height="80" as="geometry" />
        </mxCell>
        <mxCell id="mq0hJKvMkmg_muXDxXzh-26" value="product/object" style="ellipse;whiteSpace=wrap;html=1;rounded=1;fontSize=12;strokeWidth=1;fillColor=#d5e8d4;strokeColor=#82b366;" vertex="1" parent="1">
          <mxGeometry x="370" y="740" width="120" height="80" as="geometry" />
        </mxCell>
        <mxCell id="mq0hJKvMkmg_muXDxXzh-27" value="text/narrative" style="ellipse;whiteSpace=wrap;html=1;rounded=1;fontSize=12;strokeWidth=1;fillColor=#e1d5e7;strokeColor=#9673a6;" vertex="1" parent="1">
          <mxGeometry x="370" y="860" width="120" height="80" as="geometry" />
        </mxCell>
        <mxCell id="mq0hJKvMkmg_muXDxXzh-28" value="audio/sound" style="ellipse;whiteSpace=wrap;html=1;rounded=1;fontSize=12;strokeWidth=1;fillColor=#f9f7ed;strokeColor=#36393d;" vertex="1" parent="1">
          <mxGeometry x="370" y="970" width="120" height="80" as="geometry" />
        </mxCell>
        <mxCell id="mq0hJKvMkmg_muXDxXzh-63" style="edgeStyle=none;rounded=0;jumpStyle=arc;orthogonalLoop=1;jettySize=auto;html=1;exitX=1;exitY=0.5;exitDx=0;exitDy=0;entryX=0;entryY=0;entryDx=0;entryDy=0;fontSize=12;" edge="1" parent="1" source="mq0hJKvMkmg_muXDxXzh-62" target="mq0hJKvMkmg_muXDxXzh-21">
          <mxGeometry relative="1" as="geometry" />
        </mxCell>
        <mxCell id="mq0hJKvMkmg_muXDxXzh-64" style="rounded=0;jumpStyle=arc;orthogonalLoop=1;jettySize=auto;html=1;exitX=1;exitY=0.5;exitDx=0;exitDy=0;entryX=0.05;entryY=0.288;entryDx=0;entryDy=0;entryPerimeter=0;fontSize=12;" edge="1" parent="1" source="mq0hJKvMkmg_muXDxXzh-62" target="mq0hJKvMkmg_muXDxXzh-24">
          <mxGeometry relative="1" as="geometry" />
        </mxCell>
        <mxCell id="mq0hJKvMkmg_muXDxXzh-65" style="edgeStyle=none;rounded=0;jumpStyle=arc;orthogonalLoop=1;jettySize=auto;html=1;exitX=1;exitY=0.5;exitDx=0;exitDy=0;entryX=0.033;entryY=0.3;entryDx=0;entryDy=0;entryPerimeter=0;fontSize=12;" edge="1" parent="1" source="mq0hJKvMkmg_muXDxXzh-62" target="mq0hJKvMkmg_muXDxXzh-27">
          <mxGeometry relative="1" as="geometry" />
        </mxCell>
        <mxCell id="mq0hJKvMkmg_muXDxXzh-62" value="Animation" style="rounded=1;whiteSpace=wrap;html=1;fontSize=12;strokeWidth=1;" vertex="1" parent="1">
          <mxGeometry x="30" y="110" width="120" height="60" as="geometry" />
        </mxCell>
      </root>
    </mxGraphModel>
  </diagram>
</mxfile>
